<svg width="59" height="8" viewBox="0 0 59 8" fill="none" xmlns="http://www.w3.org/2000/svg">
<path d="M1 3.5C0.723858 3.5 0.5 3.72386 0.5 4C0.5 4.27614 0.723858 4.5 1 4.5L1 3.5ZM58.3536 4.35355C58.5488 4.15829 58.5488 3.8417 58.3536 3.64644L55.1716 0.464461C54.9763 0.269199 54.6597 0.269199 54.4645 0.464461C54.2692 0.659724 54.2692 0.976306 54.4645 1.17157L57.2929 4L54.4645 6.82842C54.2692 7.02368 54.2692 7.34027 54.4645 7.53553C54.6597 7.73079 54.9763 7.73079 55.1716 7.53553L58.3536 4.35355ZM1 4.5C1.04348 4.5 1.08692 4.5 1.13032 4.5C1.17372 4.5 1.21708 4.5 1.26041 4.5C1.30374 4.5 1.34703 4.5 1.39028 4.5C1.43354 4.5 1.47675 4.5 1.51993 4.5C1.56311 4.5 1.60626 4.5 1.64937 4.5C1.69247 4.5 1.73554 4.5 1.77858 4.5C1.82161 4.5 1.86461 4.5 1.90757 4.5C1.95053 4.5 1.99346 4.5 2.03634 4.5C2.07923 4.5 2.12209 4.5 2.1649 4.5C2.20772 4.5 2.2505 4.5 2.29324 4.5C2.33599 4.5 2.3787 4.5 2.42137 4.5C2.46404 4.5 2.50668 4.5 2.54928 4.5C2.59189 4.5 2.63445 4.5 2.67698 4.5C2.71951 4.5 2.76201 4.5 2.80447 4.5C2.84693 4.5 2.88936 4.5 2.93175 4.5C2.97414 4.5 3.01649 4.5 3.05881 4.5C3.10113 4.5 3.14341 4.5 3.18566 4.5C3.22791 4.5 3.27013 4.5 3.31231 4.5C3.35449 4.5 3.39664 4.5 3.43875 4.5C3.48086 4.5 3.52294 4.5 3.56498 4.5C3.60702 4.5 3.64903 4.5 3.691 4.5C3.73298 4.5 3.77492 4.5 3.81682 4.5C3.85873 4.5 3.9006 4.5 3.94244 4.5C3.98427 4.5 4.02608 4.5 4.06785 4.5C4.10961 4.5 4.15135 4.5 4.19305 4.5C4.23475 4.5 4.27642 4.5 4.31806 4.5C4.35969 4.5 4.40129 4.5 4.44286 4.5C4.48443 4.5 4.52597 4.5 4.56747 4.5C4.60897 4.5 4.65044 4.5 4.69187 4.5C4.73331 4.5 4.77471 4.5 4.81608 4.5C4.85745 4.5 4.89878 4.5 4.94009 4.5C4.98139 4.5 5.02266 4.5 5.0639 4.5C5.10514 4.5 5.14634 4.5 5.18751 4.5C5.22869 4.5 5.26983 4.5 5.31094 4.5C5.35204 4.5 5.39312 4.5 5.43416 4.5C5.47521 4.5 5.51622 4.5 5.5572 4.5C5.59818 4.5 5.63912 4.5 5.68004 4.5C5.72095 4.5 5.76184 4.5 5.80269 4.5C5.84354 4.5 5.88436 4.5 5.92515 4.5C5.96593 4.5 6.00669 4.5 6.04742 4.5C6.08814 4.5 6.12883 4.5 6.1695 4.5C6.21016 4.5 6.25079 4.5 6.29139 4.5C6.33199 4.5 6.37256 4.5 6.4131 4.5C6.45363 4.5 6.49414 4.5 6.53461 4.5C6.57509 4.5 6.61553 4.5 6.65595 4.5C6.69636 4.5 6.73675 4.5 6.7771 4.5C6.81745 4.5 6.85777 4.5 6.89806 4.5C6.93836 4.5 6.97862 4.5 7.01885 4.5C7.05908 4.5 7.09928 4.5 7.13945 4.5C7.17962 4.5 7.21976 4.5 7.25987 4.5C7.29998 4.5 7.34006 4.5 7.38011 4.5C7.42016 4.5 7.46018 4.5 7.50017 4.5C7.54016 4.5 7.58012 4.5 7.62005 4.5C7.65998 4.5 7.69988 4.5 7.73976 4.5C7.77963 4.5 7.81947 4.5 7.85929 4.5C7.8991 4.5 7.93888 4.5 7.97864 4.5C8.01839 4.5 8.05812 4.5 8.09782 4.5C8.13751 4.5 8.17718 4.5 8.21682 4.5C8.25646 4.5 8.29607 4.5 8.33565 4.5C8.37523 4.5 8.41478 4.5 8.45431 4.5C8.49383 4.5 8.53333 4.5 8.5728 4.5C8.61226 4.5 8.6517 4.5 8.69111 4.5C8.73052 4.5 8.76991 4.5 8.80926 4.5C8.84861 4.5 8.88794 4.5 8.92724 4.5C8.96654 4.5 9.00581 4.5 9.04505 4.5C9.08429 4.5 9.1235 4.5 9.16269 4.5C9.20188 4.5 9.24104 4.5 9.28017 4.5C9.3193 4.5 9.3584 4.5 9.39748 4.5C9.43656 4.5 9.47561 4.5 9.51463 4.5C9.55365 4.5 9.59264 4.5 9.63161 4.5C9.67058 4.5 9.70952 4.5 9.74843 4.5C9.78735 4.5 9.82623 4.5 9.86509 4.5C9.90395 4.5 9.94278 4.5 9.98159 4.5C10.0204 4.5 10.0592 4.5 10.0979 4.5C10.1367 4.5 10.1754 4.5 10.2141 4.5C10.2528 4.5 10.2915 4.5 10.3301 4.5C10.3688 4.5 10.4074 4.5 10.446 4.5C10.4846 4.5 10.5232 4.5 10.5617 4.5C10.6002 4.5 10.6388 4.5 10.6773 4.5C10.7157 4.5 10.7542 4.5 10.7927 4.5C10.8311 4.5 10.8695 4.5 10.9079 4.5C10.9463 4.5 10.9846 4.5 11.023 4.5C11.0613 4.5 11.0996 4.5 11.1379 4.5C11.1762 4.5 11.2145 4.5 11.2527 4.5C11.2909 4.5 11.3292 4.5 11.3673 4.5C11.4055 4.5 11.4437 4.5 11.4818 4.5C11.52 4.5 11.5581 4.5 11.5962 4.5C11.6343 4.5 11.6723 4.5 11.7104 4.5C11.7484 4.5 11.7864 4.5 11.8244 4.5C11.8624 4.5 11.9004 4.5 11.9383 4.5C11.9762 4.5 12.0142 4.5 12.0521 4.5C12.0899 4.5 12.1278 4.5 12.1657 4.5C12.2035 4.5 12.2413 4.5 12.2791 4.5C12.3169 4.5 12.3547 4.5 12.3924 4.5C12.4302 4.5 12.4679 4.5 12.5056 4.5C12.5433 4.5 12.581 4.5 12.6187 4.5C12.6563 4.5 12.694 4.5 12.7316 4.5C12.7692 4.5 12.8068 4.5 12.8443 4.5C12.8819 4.5 12.9194 4.5 12.957 4.5C12.9945 4.5 13.032 4.5 13.0694 4.5C13.1069 4.5 13.1444 4.5 13.1818 4.5C13.2192 4.5 13.2566 4.5 13.294 4.5C13.3314 4.5 13.3687 4.5 13.4061 4.5C13.4434 4.5 13.4807 4.5 13.518 4.5C13.5553 4.5 13.5926 4.5 13.6298 4.5C13.6671 4.5 13.7043 4.5 13.7415 4.5C13.7787 4.5 13.8159 4.5 13.8531 4.5C13.8902 4.5 13.9274 4.5 13.9645 4.5C14.0016 4.5 14.0387 4.5 14.0758 4.5C14.1128 4.5 14.1499 4.5 14.1869 4.5C14.224 4.5 14.261 4.5 14.298 4.5C14.335 4.5 14.3719 4.5 14.4089 4.5C14.4458 4.5 14.4827 4.5 14.5197 4.5C14.5566 4.5 14.5934 4.5 14.6303 4.5C14.6672 4.5 14.704 4.5 14.7408 4.5C14.7777 4.5 14.8145 4.5 14.8512 4.5C14.888 4.5 14.9248 4.5 14.9615 4.5C14.9983 4.5 15.035 4.5 15.0717 4.5C15.1084 4.5 15.1451 4.5 15.1817 4.5C15.2184 4.5 15.255 4.5 15.2917 4.5C15.3283 4.5 15.3649 4.5 15.4015 4.5C15.438 4.5 15.4746 4.5 15.5112 4.5C15.5477 4.5 15.5842 4.5 15.6207 4.5C15.6572 4.5 15.6937 4.5 15.7302 4.5C15.7666 4.5 15.8031 4.5 15.8395 4.5C15.8759 4.5 15.9123 4.5 15.9487 4.5C15.9851 4.5 16.0215 4.5 16.0578 4.5C16.0942 4.5 16.1305 4.5 16.1668 4.5C16.2032 4.5 16.2395 4.5 16.2757 4.5C16.312 4.5 16.3483 4.5 16.3845 4.5C16.4207 4.5 16.457 4.5 16.4932 4.5C16.5294 4.5 16.5656 4.5 16.6017 4.5C16.6379 4.5 16.674 4.5 16.7102 4.5C16.7463 4.5 16.7824 4.5 16.8185 4.5C16.8546 4.5 16.8907 4.5 16.9267 4.5C16.9628 4.5 16.9988 4.5 17.0349 4.5C17.0709 4.5 17.1069 4.5 17.1429 4.5C17.1789 4.5 17.2148 4.5 17.2508 4.5C17.2868 4.5 17.3227 4.5 17.3586 4.5C17.3945 4.5 17.4304 4.5 17.4663 4.5C17.5022 4.5 17.5381 4.5 17.5739 4.5C17.6098 4.5 17.6456 4.5 17.6814 4.5C17.7173 4.5 17.7531 4.5 17.7889 4.5C17.8246 4.5 17.8604 4.5 17.8962 4.5C17.9319 4.5 17.9677 4.5 18.0034 4.5C18.0391 4.5 18.0748 4.5 18.1105 4.5C18.1462 4.5 18.1819 4.5 18.2175 4.5C18.2532 4.5 18.2888 4.5 18.3244 4.5C18.3601 4.5 18.3957 4.5 18.4313 4.5C18.4669 4.5 18.5024 4.5 18.538 4.5C18.5736 4.5 18.6091 4.5 18.6446 4.5C18.6802 4.5 18.7157 4.5 18.7512 4.5C18.7867 4.5 18.8222 4.5 18.8577 4.5C18.8931 4.5 18.9286 4.5 18.964 4.5C18.9995 4.5 19.0349 4.5 19.0703 4.5C19.1057 4.5 19.1411 4.5 19.1765 4.5C19.2119 4.5 19.2473 4.5 19.2826 4.5C19.318 4.5 19.3533 4.5 19.3886 4.5C19.424 4.5 19.4593 4.5 19.4946 4.5C19.5299 4.5 19.5651 4.5 19.6004 4.5C19.6357 4.5 19.6709 4.5 19.7062 4.5C19.7414 4.5 19.7766 4.5 19.8119 4.5C19.8471 4.5 19.8823 4.5 19.9175 4.5C19.9526 4.5 19.9878 4.5 20.023 4.5C20.0581 4.5 20.0933 4.5 20.1284 4.5C20.1635 4.5 20.1987 4.5 20.2338 4.5C20.2689 4.5 20.304 4.5 20.3391 4.5C20.3741 4.5 20.4092 4.5 20.4443 4.5C20.4793 4.5 20.5144 4.5 20.5494 4.5C20.5844 4.5 20.6194 4.5 20.6544 4.5C20.6894 4.5 20.7244 4.5 20.7594 4.5C20.7944 4.5 20.8293 4.5 20.8643 4.5C20.8993 4.5 20.9342 4.5 20.9691 4.5C21.0041 4.5 21.039 4.5 21.0739 4.5C21.1088 4.5 21.1437 4.5 21.1786 4.5C21.2134 4.5 21.2483 4.5 21.2832 4.5C21.318 4.5 21.3529 4.5 21.3877 4.5C21.4225 4.5 21.4574 4.5 21.4922 4.5C21.527 4.5 21.5618 4.5 21.5966 4.5C21.6314 4.5 21.6662 4.5 21.7009 4.5C21.7357 4.5 21.7704 4.5 21.8052 4.5C21.8399 4.5 21.8747 4.5 21.9094 4.5C21.9441 4.5 21.9788 4.5 22.0135 4.5C22.0482 4.5 22.0829 4.5 22.1176 4.5C22.1523 4.5 22.187 4.5 22.2216 4.5C22.2563 4.5 22.2909 4.5 22.3256 4.5C22.3602 4.5 22.3948 4.5 22.4295 4.5C22.4641 4.5 22.4987 4.5 22.5333 4.5C22.5679 4.5 22.6025 4.5 22.6371 4.5C22.6716 4.5 22.7062 4.5 22.7408 4.5C22.7753 4.5 22.8099 4.5 22.8444 4.5C22.879 4.5 22.9135 4.5 22.948 4.5C22.9825 4.5 23.0171 4.5 23.0516 4.5C23.0861 4.5 23.1206 4.5 23.1551 4.5C23.1895 4.5 23.224 4.5 23.2585 4.5C23.293 4.5 23.3274 4.5 23.3619 4.5C23.3963 4.5 23.4308 4.5 23.4652 4.5C23.4996 4.5 23.534 4.5 23.5685 4.5C23.6029 4.5 23.6373 4.5 23.6717 4.5C23.7061 4.5 23.7405 4.5 23.7749 4.5C23.8092 4.5 23.8436 4.5 23.878 4.5C23.9123 4.5 23.9467 4.5 23.9811 4.5C24.0154 4.5 24.0498 4.5 24.0841 4.5C24.1184 4.5 24.1528 4.5 24.1871 4.5C24.2214 4.5 24.2557 4.5 24.29 4.5C24.3243 4.5 24.3586 4.5 24.3929 4.5C24.4272 4.5 24.4615 4.5 24.4957 4.5C24.53 4.5 24.5643 4.5 24.5986 4.5C24.6328 4.5 24.6671 4.5 24.7013 4.5C24.7356 4.5 24.7698 4.5 24.804 4.5C24.8383 4.5 24.8725 4.5 24.9067 4.5C24.9409 4.5 24.9752 4.5 25.0094 4.5C25.0436 4.5 25.0778 4.5 25.112 4.5C25.1462 4.5 25.1804 4.5 25.2145 4.5C25.2487 4.5 25.2829 4.5 25.3171 4.5C25.3512 4.5 25.3854 4.5 25.4196 4.5C25.4537 4.5 25.4879 4.5 25.522 4.5C25.5562 4.5 25.5903 4.5 25.6245 4.5C25.6586 4.5 25.6927 4.5 25.7268 4.5C25.761 4.5 25.7951 4.5 25.8292 4.5C25.8633 4.5 25.8974 4.5 25.9315 4.5C25.9656 4.5 25.9997 4.5 26.0338 4.5C26.0679 4.5 26.102 4.5 26.1361 4.5C26.1702 4.5 26.2043 4.5 26.2383 4.5C26.2724 4.5 26.3065 4.5 26.3406 4.5C26.3746 4.5 26.4087 4.5 26.4427 4.5C26.4768 4.5 26.5108 4.5 26.5449 4.5C26.5789 4.5 26.613 4.5 26.647 4.5C26.6811 4.5 26.7151 4.5 26.7491 4.5C26.7832 4.5 26.8172 4.5 26.8512 4.5C26.8852 4.5 26.9193 4.5 26.9533 4.5C26.9873 4.5 27.0213 4.5 27.0553 4.5C27.0893 4.5 27.1233 4.5 27.1573 4.5C27.1913 4.5 27.2253 4.5 27.2593 4.5C27.2933 4.5 27.3273 4.5 27.3613 4.5C27.3953 4.5 27.4293 4.5 27.4633 4.5C27.4973 4.5 27.5312 4.5 27.5652 4.5C27.5992 4.5 27.6332 4.5 27.6672 4.5C27.7011 4.5 27.7351 4.5 27.7691 4.5C27.803 4.5 27.837 4.5 27.871 4.5C27.9049 4.5 27.9389 4.5 27.9728 4.5C28.0068 4.5 28.0408 4.5 28.0747 4.5C28.1087 4.5 28.1426 4.5 28.1766 4.5C28.2105 4.5 28.2445 4.5 28.2784 4.5C28.3124 4.5 28.3463 4.5 28.3803 4.5C28.4142 4.5 28.4481 4.5 28.4821 4.5C28.516 4.5 28.55 4.5 28.5839 4.5C28.6178 4.5 28.6518 4.5 28.6857 4.5C28.7196 4.5 28.7536 4.5 28.7875 4.5C28.8214 4.5 28.8554 4.5 28.8893 4.5C28.9232 4.5 28.9572 4.5 28.9911 4.5C29.025 4.5 29.059 4.5 29.0929 4.5C29.1268 4.5 29.1607 4.5 29.1947 4.5C29.2286 4.5 29.2625 4.5 29.2964 4.5C29.3304 4.5 29.3643 4.5 29.3982 4.5C29.4321 4.5 29.4661 4.5 29.5 4.5C29.5339 4.5 29.5679 4.5 29.6018 4.5C29.6357 4.5 29.6696 4.5 29.7036 4.5C29.7375 4.5 29.7714 4.5 29.8053 4.5C29.8393 4.5 29.8732 4.5 29.9071 4.5C29.941 4.5 29.975 4.5 30.0089 4.5C30.0428 4.5 30.0768 4.5 30.1107 4.5C30.1446 4.5 30.1786 4.5 30.2125 4.5C30.2464 4.5 30.2804 4.5 30.3143 4.5C30.3482 4.5 30.3822 4.5 30.4161 4.5C30.45 4.5 30.484 4.5 30.5179 4.5C30.5519 4.5 30.5858 4.5 30.6197 4.5C30.6537 4.5 30.6876 4.5 30.7216 4.5C30.7555 4.5 30.7895 4.5 30.8234 4.5C30.8574 4.5 30.8913 4.5 30.9253 4.5C30.9592 4.5 30.9932 4.5 31.0272 4.5C31.0611 4.5 31.0951 4.5 31.129 4.5C31.163 4.5 31.197 4.5 31.2309 4.5C31.2649 4.5 31.2989 4.5 31.3328 4.5C31.3668 4.5 31.4008 4.5 31.4348 4.5C31.4688 4.5 31.5027 4.5 31.5367 4.5C31.5707 4.5 31.6047 4.5 31.6387 4.5C31.6727 4.5 31.7067 4.5 31.7407 4.5C31.7747 4.5 31.8087 4.5 31.8427 4.5C31.8767 4.5 31.9107 4.5 31.9447 4.5C31.9787 4.5 32.0127 4.5 32.0467 4.5C32.0807 4.5 32.1148 4.5 32.1488 4.5C32.1828 4.5 32.2168 4.5 32.2509 4.5C32.2849 4.5 32.3189 4.5 32.353 4.5C32.387 4.5 32.4211 4.5 32.4551 4.5C32.4892 4.5 32.5232 4.5 32.5573 4.5C32.5913 4.5 32.6254 4.5 32.6595 4.5C32.6935 4.5 32.7276 4.5 32.7617 4.5C32.7957 4.5 32.8298 4.5 32.8639 4.5C32.898 4.5 32.9321 4.5 32.9662 4.5C33.0003 4.5 33.0344 4.5 33.0685 4.5C33.1026 4.5 33.1367 4.5 33.1708 4.5C33.2049 4.5 33.239 4.5 33.2732 4.5C33.3073 4.5 33.3414 4.5 33.3755 4.5C33.4097 4.5 33.4438 4.5 33.478 4.5C33.5121 4.5 33.5463 4.5 33.5804 4.5C33.6146 4.5 33.6488 4.5 33.6829 4.5C33.7171 4.5 33.7513 4.5 33.7855 4.5C33.8196 4.5 33.8538 4.5 33.888 4.5C33.9222 4.5 33.9564 4.5 33.9906 4.5C34.0248 4.5 34.0591 4.5 34.0933 4.5C34.1275 4.5 34.1617 4.5 34.196 4.5C34.2302 4.5 34.2644 4.5 34.2987 4.5C34.3329 4.5 34.3672 4.5 34.4014 4.5C34.4357 4.5 34.47 4.5 34.5042 4.5C34.5385 4.5 34.5728 4.5 34.6071 4.5C34.6414 4.5 34.6757 4.5 34.71 4.5C34.7443 4.5 34.7786 4.5 34.8129 4.5C34.8473 4.5 34.8816 4.5 34.9159 4.5C34.9502 4.5 34.9846 4.5 35.0189 4.5C35.0533 4.5 35.0877 4.5 35.122 4.5C35.1564 4.5 35.1908 4.5 35.2251 4.5C35.2595 4.5 35.2939 4.5 35.3283 4.5C35.3627 4.5 35.3971 4.5 35.4315 4.5C35.466 4.5 35.5004 4.5 35.5348 4.5C35.5692 4.5 35.6037 4.5 35.6381 4.5C35.6726 4.5 35.707 4.5 35.7415 4.5C35.776 4.5 35.8105 4.5 35.8449 4.5C35.8794 4.5 35.9139 4.5 35.9484 4.5C35.9829 4.5 36.0175 4.5 36.052 4.5C36.0865 4.5 36.121 4.5 36.1556 4.5C36.1901 4.5 36.2247 4.5 36.2592 4.5C36.2938 4.5 36.3284 4.5 36.3629 4.5C36.3975 4.5 36.4321 4.5 36.4667 4.5C36.5013 4.5 36.5359 4.5 36.5705 4.5C36.6052 4.5 36.6398 4.5 36.6744 4.5C36.7091 4.5 36.7437 4.5 36.7784 4.5C36.813 4.5 36.8477 4.5 36.8824 4.5C36.9171 4.5 36.9518 4.5 36.9865 4.5C37.0212 4.5 37.0559 4.5 37.0906 4.5C37.1253 4.5 37.1601 4.5 37.1948 4.5C37.2295 4.5 37.2643 4.5 37.2991 4.5C37.3338 4.5 37.3686 4.5 37.4034 4.5C37.4382 4.5 37.473 4.5 37.5078 4.5C37.5426 4.5 37.5774 4.5 37.6123 4.5C37.6471 4.5 37.682 4.5 37.7168 4.5C37.7517 4.5 37.7866 4.5 37.8214 4.5C37.8563 4.5 37.8912 4.5 37.9261 4.5C37.961 4.5 37.9959 4.5 38.0309 4.5C38.0658 4.5 38.1007 4.5 38.1357 4.5C38.1707 4.5 38.2056 4.5 38.2406 4.5C38.2756 4.5 38.3106 4.5 38.3456 4.5C38.3806 4.5 38.4156 4.5 38.4506 4.5C38.4856 4.5 38.5207 4.5 38.5557 4.5C38.5908 4.5 38.6259 4.5 38.6609 4.5C38.696 4.5 38.7311 4.5 38.7662 4.5C38.8013 4.5 38.8365 4.5 38.8716 4.5C38.9067 4.5 38.9419 4.5 38.977 4.5C39.0122 4.5 39.0474 4.5 39.0825 4.5C39.1177 4.5 39.1529 4.5 39.1881 4.5C39.2234 4.5 39.2586 4.5 39.2938 4.5C39.3291 4.5 39.3643 4.5 39.3996 4.5C39.4349 4.5 39.4701 4.5 39.5054 4.5C39.5407 4.5 39.576 4.5 39.6114 4.5C39.6467 4.5 39.682 4.5 39.7174 4.5C39.7527 4.5 39.7881 4.5 39.8235 4.5C39.8589 4.5 39.8943 4.5 39.9297 4.5C39.9651 4.5 40.0005 4.5 40.036 4.5C40.0714 4.5 40.1069 4.5 40.1423 4.5C40.1778 4.5 40.2133 4.5 40.2488 4.5C40.2843 4.5 40.3198 4.5 40.3554 4.5C40.3909 4.5 40.4264 4.5 40.462 4.5C40.4976 4.5 40.5331 4.5 40.5687 4.5C40.6043 4.5 40.6399 4.5 40.6756 4.5C40.7112 4.5 40.7468 4.5 40.7825 4.5C40.8181 4.5 40.8538 4.5 40.8895 4.5C40.9252 4.5 40.9609 4.5 40.9966 4.5C41.0323 4.5 41.0681 4.5 41.1038 4.5C41.1396 4.5 41.1754 4.5 41.2111 4.5C41.2469 4.5 41.2827 4.5 41.3186 4.5C41.3544 4.5 41.3902 4.5 41.4261 4.5C41.4619 4.5 41.4978 4.5 41.5337 4.5C41.5696 4.5 41.6055 4.5 41.6414 4.5C41.6773 4.5 41.7132 4.5 41.7492 4.5C41.7852 4.5 41.8211 4.5 41.8571 4.5C41.8931 4.5 41.9291 4.5 41.9651 4.5C42.0012 4.5 42.0372 4.5 42.0733 4.5C42.1093 4.5 42.1454 4.5 42.1815 4.5C42.2176 4.5 42.2537 4.5 42.2898 4.5C42.326 4.5 42.3621 4.5 42.3983 4.5C42.4344 4.5 42.4706 4.5 42.5068 4.5C42.543 4.5 42.5793 4.5 42.6155 4.5C42.6517 4.5 42.688 4.5 42.7243 4.5C42.7605 4.5 42.7968 4.5 42.8332 4.5C42.8695 4.5 42.9058 4.5 42.9422 4.5C42.9785 4.5 43.0149 4.5 43.0513 4.5C43.0877 4.5 43.1241 4.5 43.1605 4.5C43.1969 4.5 43.2334 4.5 43.2698 4.5C43.3063 4.5 43.3428 4.5 43.3793 4.5C43.4158 4.5 43.4523 4.5 43.4888 4.5C43.5254 4.5 43.562 4.5 43.5985 4.5C43.6351 4.5 43.6717 4.5 43.7083 4.5C43.745 4.5 43.7816 4.5 43.8183 4.5C43.8549 4.5 43.8916 4.5 43.9283 4.5C43.965 4.5 44.0017 4.5 44.0385 4.5C44.0752 4.5 44.112 4.5 44.1488 4.5C44.1855 4.5 44.2223 4.5 44.2592 4.5C44.296 4.5 44.3328 4.5 44.3697 4.5C44.4066 4.5 44.4434 4.5 44.4803 4.5C44.5173 4.5 44.5542 4.5 44.5911 4.5C44.6281 4.5 44.665 4.5 44.702 4.5C44.739 4.5 44.776 4.5 44.8131 4.5C44.8501 4.5 44.8872 4.5 44.9242 4.5C44.9613 4.5 44.9984 4.5 45.0355 4.5C45.0726 4.5 45.1098 4.5 45.1469 4.5C45.1841 4.5 45.2213 4.5 45.2585 4.5C45.2957 4.5 45.3329 4.5 45.3702 4.5C45.4074 4.5 45.4447 4.5 45.482 4.5C45.5193 4.5 45.5566 4.5 45.5939 4.5C45.6313 4.5 45.6686 4.5 45.706 4.5C45.7434 4.5 45.7808 4.5 45.8182 4.5C45.8556 4.5 45.8931 4.5 45.9306 4.5C45.968 4.5 46.0055 4.5 46.043 4.5C46.0806 4.5 46.1181 4.5 46.1557 4.5C46.1932 4.5 46.2308 4.5 46.2684 4.5C46.306 4.5 46.3437 4.5 46.3813 4.5C46.419 4.5 46.4567 4.5 46.4944 4.5C46.5321 4.5 46.5698 4.5 46.6076 4.5C46.6453 4.5 46.6831 4.5 46.7209 4.5C46.7587 4.5 46.7965 4.5 46.8343 4.5C46.8722 4.5 46.9101 4.5 46.9479 4.5C46.9858 4.5 47.0238 4.5 47.0617 4.5C47.0996 4.5 47.1376 4.5 47.1756 4.5C47.2136 4.5 47.2516 4.5 47.2896 4.5C47.3277 4.5 47.3657 4.5 47.4038 4.5C47.4419 4.5 47.48 4.5 47.5182 4.5C47.5563 4.5 47.5945 4.5 47.6327 4.5C47.6708 4.5 47.7091 4.5 47.7473 4.5C47.7855 4.5 47.8238 4.5 47.8621 4.5C47.9004 4.5 47.9387 4.5 47.977 4.5C48.0154 4.5 48.0537 4.5 48.0921 4.5C48.1305 4.5 48.1689 4.5 48.2073 4.5C48.2458 4.5 48.2843 4.5 48.3227 4.5C48.3612 4.5 48.3998 4.5 48.4383 4.5C48.4768 4.5 48.5154 4.5 48.554 4.5C48.5926 4.5 48.6312 4.5 48.6699 4.5C48.7085 4.5 48.7472 4.5 48.7859 4.5C48.8246 4.5 48.8633 4.5 48.9021 4.5C48.9408 4.5 48.9796 4.5 49.0184 4.5C49.0572 4.5 49.0961 4.5 49.1349 4.5C49.1738 4.5 49.2127 4.5 49.2516 4.5C49.2905 4.5 49.3294 4.5 49.3684 4.5C49.4074 4.5 49.4464 4.5 49.4854 4.5C49.5244 4.5 49.5634 4.5 49.6025 4.5C49.6416 4.5 49.6807 4.5 49.7198 4.5C49.759 4.5 49.7981 4.5 49.8373 4.5C49.8765 4.5 49.9157 4.5 49.955 4.5C49.9942 4.5 50.0335 4.5 50.0728 4.5C50.1121 4.5 50.1514 4.5 50.1907 4.5C50.2301 4.5 50.2695 4.5 50.3089 4.5C50.3483 4.5 50.3877 4.5 50.4272 4.5C50.4667 4.5 50.5062 4.5 50.5457 4.5C50.5852 4.5 50.6248 4.5 50.6643 4.5C50.7039 4.5 50.7435 4.5 50.7832 4.5C50.8228 4.5 50.8625 4.5 50.9022 4.5C50.9419 4.5 50.9816 4.5 51.0214 4.5C51.0611 4.5 51.1009 4.5 51.1407 4.5C51.1805 4.5 51.2204 4.5 51.2602 4.5C51.3001 4.5 51.34 4.5 51.3799 4.5C51.4199 4.5 51.4598 4.5 51.4998 4.5C51.5398 4.5 51.5798 4.5 51.6199 4.5C51.6599 4.5 51.7 4.5 51.7401 4.5C51.7802 4.5 51.8204 4.5 51.8606 4.5C51.9007 4.5 51.9409 4.5 51.9812 4.5C52.0214 4.5 52.0616 4.5 52.1019 4.5C52.1422 4.5 52.1825 4.5 52.2229 4.5C52.2633 4.5 52.3036 4.5 52.3441 4.5C52.3845 4.5 52.4249 4.5 52.4654 4.5C52.5059 4.5 52.5464 4.5 52.5869 4.5C52.6274 4.5 52.668 4.5 52.7086 4.5C52.7492 4.5 52.7898 4.5 52.8305 4.5C52.8712 4.5 52.9119 4.5 52.9526 4.5C52.9933 4.5 53.0341 4.5 53.0749 4.5C53.1156 4.5 53.1565 4.5 53.1973 4.5C53.2382 4.5 53.279 4.5 53.32 4.5C53.3609 4.5 53.4018 4.5 53.4428 4.5C53.4838 4.5 53.5248 4.5 53.5658 4.5C53.6069 4.5 53.648 4.5 53.6891 4.5C53.7302 4.5 53.7713 4.5 53.8125 4.5C53.8537 4.5 53.8949 4.5 53.9361 4.5C53.9773 4.5 54.0186 4.5 54.0599 4.5C54.1012 4.5 54.1426 4.5 54.1839 4.5C54.2253 4.5 54.2667 4.5 54.3081 4.5C54.3496 4.5 54.391 4.5 54.4325 4.5C54.474 4.5 54.5156 4.5 54.5571 4.5C54.5987 4.5 54.6403 4.5 54.6819 4.5C54.7236 4.5 54.7652 4.5 54.8069 4.5C54.8486 4.5 54.8904 4.5 54.9322 4.5C54.9739 4.5 55.0157 4.5 55.0576 4.5C55.0994 4.5 55.1413 4.5 55.1832 4.5C55.2251 4.5 55.267 4.5 55.309 4.5C55.351 4.5 55.393 4.5 55.435 4.5C55.4771 4.5 55.5191 4.5 55.5613 4.5C55.6034 4.5 55.6455 4.5 55.6877 4.5C55.7299 4.5 55.7721 4.5 55.8143 4.5C55.8566 4.5 55.8989 4.5 55.9412 4.5C55.9835 4.5 56.0259 4.5 56.0683 4.5C56.1106 4.5 56.1531 4.5 56.1955 4.5C56.238 4.5 56.2805 4.5 56.323 4.5C56.3655 4.5 56.4081 4.5 56.4507 4.5C56.4933 4.5 56.536 4.5 56.5786 4.5C56.6213 4.5 56.664 4.5 56.7068 4.5C56.7495 4.5 56.7923 4.5 56.8351 4.5C56.8779 4.5 56.9208 4.5 56.9637 4.5C57.0065 4.5 57.0495 4.5 57.0924 4.5C57.1354 4.5 57.1784 4.5 57.2214 4.5C57.2645 4.5 57.3075 4.5 57.3506 4.5C57.3937 4.5 57.4369 4.5 57.4801 4.5C57.5232 4.5 57.5665 4.5 57.6097 4.5C57.653 4.5 57.6963 4.5 57.7396 4.5C57.7829 4.5 57.8263 4.5 57.8697 4.5C57.9131 4.5 57.9565 4.5 58 4.5L58 3.5C57.9565 3.5 57.9131 3.5 57.8697 3.5C57.8263 3.5 57.7829 3.5 57.7396 3.5C57.6963 3.5 57.653 3.5 57.6097 3.5C57.5665 3.5 57.5232 3.5 57.4801 3.5C57.4369 3.5 57.3937 3.5 57.3506 3.5C57.3075 3.5 57.2645 3.5 57.2214 3.5C57.1784 3.5 57.1354 3.5 57.0924 3.5C57.0495 3.5 57.0065 3.5 56.9637 3.5C56.9208 3.5 56.8779 3.5 56.8351 3.5C56.7923 3.5 56.7495 3.5 56.7068 3.5C56.664 3.5 56.6213 3.5 56.5786 3.5C56.536 3.5 56.4933 3.5 56.4507 3.5C56.4081 3.5 56.3655 3.5 56.323 3.5C56.2805 3.5 56.238 3.5 56.1955 3.5C56.1531 3.5 56.1106 3.5 56.0683 3.5C56.0259 3.5 55.9835 3.5 55.9412 3.5C55.8989 3.5 55.8566 3.5 55.8143 3.5C55.7721 3.5 55.7299 3.5 55.6877 3.5C55.6455 3.5 55.6034 3.5 55.5613 3.5C55.5191 3.5 55.4771 3.5 55.435 3.5C55.393 3.5 55.351 3.5 55.309 3.5C55.267 3.5 55.2251 3.5 55.1832 3.5C55.1413 3.5 55.0994 3.5 55.0576 3.5C55.0157 3.5 54.9739 3.5 54.9322 3.5C54.8904 3.5 54.8486 3.5 54.8069 3.5C54.7652 3.5 54.7236 3.5 54.6819 3.5C54.6403 3.5 54.5987 3.5 54.5571 3.5C54.5156 3.5 54.474 3.5 54.4325 3.5C54.391 3.5 54.3496 3.5 54.3081 3.5C54.2667 3.5 54.2253 3.5 54.1839 3.5C54.1426 3.5 54.1012 3.5 54.0599 3.5C54.0186 3.5 53.9773 3.5 53.9361 3.5C53.8949 3.5 53.8537 3.5 53.8125 3.5C53.7713 3.5 53.7302 3.5 53.6891 3.5C53.648 3.5 53.6069 3.5 53.5658 3.5C53.5248 3.5 53.4838 3.5 53.4428 3.5C53.4018 3.5 53.3609 3.5 53.32 3.5C53.279 3.5 53.2382 3.5 53.1973 3.5C53.1565 3.5 53.1156 3.5 53.0749 3.5C53.0341 3.5 52.9933 3.5 52.9526 3.5C52.9119 3.5 52.8712 3.5 52.8305 3.5C52.7898 3.5 52.7492 3.5 52.7086 3.5C52.668 3.5 52.6274 3.5 52.5869 3.5C52.5464 3.5 52.5059 3.5 52.4654 3.5C52.4249 3.5 52.3845 3.5 52.3441 3.5C52.3036 3.5 52.2633 3.5 52.2229 3.5C52.1825 3.5 52.1422 3.5 52.1019 3.5C52.0616 3.5 52.0214 3.5 51.9812 3.5C51.9409 3.5 51.9007 3.5 51.8606 3.5C51.8204 3.5 51.7802 3.5 51.7401 3.5C51.7 3.5 51.6599 3.5 51.6199 3.5C51.5798 3.5 51.5398 3.5 51.4998 3.5C51.4598 3.5 51.4199 3.5 51.3799 3.5C51.34 3.5 51.3001 3.5 51.2602 3.5C51.2204 3.5 51.1805 3.5 51.1407 3.5C51.1009 3.5 51.0611 3.5 51.0214 3.5C50.9816 3.5 50.9419 3.5 50.9022 3.5C50.8625 3.5 50.8228 3.5 50.7832 3.5C50.7435 3.5 50.7039 3.5 50.6643 3.5C50.6248 3.5 50.5852 3.5 50.5457 3.5C50.5062 3.5 50.4667 3.5 50.4272 3.5C50.3877 3.5 50.3483 3.5 50.3089 3.5C50.2695 3.5 50.2301 3.5 50.1907 3.5C50.1514 3.5 50.1121 3.5 50.0728 3.5C50.0335 3.5 49.9942 3.5 49.955 3.5C49.9157 3.5 49.8765 3.5 49.8373 3.5C49.7981 3.5 49.759 3.5 49.7198 3.5C49.6807 3.5 49.6416 3.5 49.6025 3.5C49.5634 3.5 49.5244 3.5 49.4854 3.5C49.4464 3.5 49.4074 3.5 49.3684 3.5C49.3294 3.5 49.2905 3.5 49.2516 3.5C49.2127 3.5 49.1738 3.5 49.1349 3.5C49.0961 3.5 49.0572 3.5 49.0184 3.5C48.9796 3.5 48.9408 3.5 48.9021 3.5C48.8633 3.5 48.8246 3.5 48.7859 3.5C48.7472 3.5 48.7085 3.5 48.6699 3.5C48.6312 3.5 48.5926 3.5 48.554 3.5C48.5154 3.5 48.4768 3.5 48.4383 3.5C48.3998 3.5 48.3612 3.5 48.3227 3.5C48.2843 3.5 48.2458 3.5 48.2073 3.5C48.1689 3.5 48.1305 3.5 48.0921 3.5C48.0537 3.5 48.0154 3.5 47.977 3.5C47.9387 3.5 47.9004 3.5 47.8621 3.5C47.8238 3.5 47.7855 3.5 47.7473 3.5C47.7091 3.5 47.6708 3.5 47.6327 3.5C47.5945 3.5 47.5563 3.5 47.5182 3.5C47.48 3.5 47.4419 3.5 47.4038 3.5C47.3657 3.5 47.3277 3.5 47.2896 3.5C47.2516 3.5 47.2136 3.5 47.1756 3.5C47.1376 3.5 47.0996 3.5 47.0617 3.5C47.0238 3.5 46.9858 3.5 46.9479 3.5C46.9101 3.5 46.8722 3.5 46.8343 3.5C46.7965 3.5 46.7587 3.5 46.7209 3.5C46.6831 3.5 46.6453 3.5 46.6076 3.5C46.5698 3.5 46.5321 3.5 46.4944 3.5C46.4567 3.5 46.419 3.5 46.3813 3.5C46.3437 3.5 46.306 3.5 46.2684 3.5C46.2308 3.5 46.1932 3.5 46.1557 3.5C46.1181 3.5 46.0806 3.5 46.043 3.5C46.0055 3.5 45.968 3.5 45.9306 3.5C45.8931 3.5 45.8556 3.5 45.8182 3.5C45.7808 3.5 45.7434 3.5 45.706 3.5C45.6686 3.5 45.6313 3.5 45.5939 3.5C45.5566 3.5 45.5193 3.5 45.482 3.5C45.4447 3.5 45.4074 3.5 45.3702 3.5C45.3329 3.5 45.2957 3.5 45.2585 3.5C45.2213 3.5 45.1841 3.5 45.1469 3.5C45.1098 3.5 45.0726 3.5 45.0355 3.5C44.9984 3.5 44.9613 3.5 44.9242 3.5C44.8872 3.5 44.8501 3.5 44.8131 3.5C44.776 3.5 44.739 3.5 44.702 3.5C44.665 3.5 44.6281 3.5 44.5911 3.5C44.5542 3.5 44.5173 3.5 44.4803 3.5C44.4434 3.5 44.4066 3.5 44.3697 3.5C44.3328 3.5 44.296 3.5 44.2592 3.5C44.2223 3.5 44.1855 3.5 44.1488 3.5C44.112 3.5 44.0752 3.5 44.0385 3.5C44.0017 3.5 43.965 3.5 43.9283 3.5C43.8916 3.5 43.8549 3.5 43.8183 3.5C43.7816 3.5 43.745 3.5 43.7083 3.5C43.6717 3.5 43.6351 3.5 43.5985 3.5C43.562 3.5 43.5254 3.5 43.4888 3.5C43.4523 3.5 43.4158 3.5 43.3793 3.5C43.3428 3.5 43.3063 3.5 43.2698 3.5C43.2334 3.5 43.1969 3.5 43.1605 3.5C43.1241 3.5 43.0877 3.5 43.0513 3.5C43.0149 3.5 42.9785 3.5 42.9422 3.5C42.9058 3.5 42.8695 3.5 42.8332 3.5C42.7968 3.5 42.7605 3.5 42.7243 3.5C42.688 3.5 42.6517 3.5 42.6155 3.5C42.5793 3.5 42.543 3.5 42.5068 3.5C42.4706 3.5 42.4344 3.5 42.3983 3.5C42.3621 3.5 42.326 3.5 42.2898 3.5C42.2537 3.5 42.2176 3.5 42.1815 3.5C42.1454 3.5 42.1093 3.5 42.0733 3.5C42.0372 3.5 42.0012 3.5 41.9651 3.5C41.9291 3.5 41.8931 3.5 41.8571 3.5C41.8211 3.5 41.7852 3.5 41.7492 3.5C41.7132 3.5 41.6773 3.5 41.6414 3.5C41.6055 3.5 41.5696 3.5 41.5337 3.5C41.4978 3.5 41.4619 3.5 41.4261 3.5C41.3902 3.5 41.3544 3.5 41.3186 3.5C41.2827 3.5 41.2469 3.5 41.2111 3.5C41.1754 3.5 41.1396 3.5 41.1038 3.5C41.0681 3.5 41.0323 3.5 40.9966 3.5C40.9609 3.5 40.9252 3.5 40.8895 3.5C40.8538 3.5 40.8181 3.5 40.7825 3.5C40.7468 3.5 40.7112 3.5 40.6756 3.5C40.6399 3.5 40.6043 3.5 40.5687 3.5C40.5331 3.5 40.4976 3.5 40.462 3.5C40.4264 3.5 40.3909 3.5 40.3554 3.5C40.3198 3.5 40.2843 3.5 40.2488 3.5C40.2133 3.5 40.1778 3.5 40.1423 3.5C40.1069 3.5 40.0714 3.5 40.036 3.5C40.0005 3.5 39.9651 3.5 39.9297 3.5C39.8943 3.5 39.8589 3.5 39.8235 3.5C39.7881 3.5 39.7527 3.5 39.7174 3.5C39.682 3.5 39.6467 3.5 39.6114 3.5C39.576 3.5 39.5407 3.5 39.5054 3.5C39.4701 3.5 39.4349 3.5 39.3996 3.5C39.3643 3.5 39.3291 3.5 39.2938 3.5C39.2586 3.5 39.2234 3.5 39.1881 3.5C39.1529 3.5 39.1177 3.5 39.0825 3.5C39.0474 3.5 39.0122 3.5 38.977 3.5C38.9419 3.5 38.9067 3.5 38.8716 3.5C38.8365 3.5 38.8013 3.5 38.7662 3.5C38.7311 3.5 38.696 3.5 38.6609 3.5C38.6259 3.5 38.5908 3.5 38.5557 3.5C38.5207 3.5 38.4856 3.5 38.4506 3.5C38.4156 3.5 38.3806 3.5 38.3456 3.5C38.3106 3.5 38.2756 3.5 38.2406 3.5C38.2056 3.5 38.1707 3.5 38.1357 3.5C38.1007 3.5 38.0658 3.5 38.0309 3.5C37.9959 3.5 37.961 3.5 37.9261 3.5C37.8912 3.5 37.8563 3.5 37.8214 3.5C37.7866 3.5 37.7517 3.5 37.7168 3.5C37.682 3.5 37.6471 3.5 37.6123 3.5C37.5774 3.5 37.5426 3.5 37.5078 3.5C37.473 3.5 37.4382 3.5 37.4034 3.5C37.3686 3.5 37.3338 3.5 37.2991 3.5C37.2643 3.5 37.2295 3.5 37.1948 3.5C37.1601 3.5 37.1253 3.5 37.0906 3.5C37.0559 3.5 37.0212 3.5 36.9865 3.5C36.9518 3.5 36.9171 3.5 36.8824 3.5C36.8477 3.5 36.813 3.5 36.7784 3.5C36.7437 3.5 36.7091 3.5 36.6744 3.5C36.6398 3.5 36.6052 3.5 36.5705 3.5C36.5359 3.5 36.5013 3.5 36.4667 3.5C36.4321 3.5 36.3975 3.5 36.3629 3.5C36.3284 3.5 36.2938 3.5 36.2592 3.5C36.2247 3.5 36.1901 3.5 36.1556 3.5C36.121 3.5 36.0865 3.5 36.052 3.5C36.0175 3.5 35.9829 3.5 35.9484 3.5C35.9139 3.5 35.8794 3.5 35.8449 3.5C35.8105 3.5 35.776 3.5 35.7415 3.5C35.707 3.5 35.6726 3.5 35.6381 3.5C35.6037 3.5 35.5692 3.5 35.5348 3.5C35.5004 3.5 35.466 3.5 35.4315 3.5C35.3971 3.5 35.3627 3.5 35.3283 3.5C35.2939 3.5 35.2595 3.5 35.2251 3.5C35.1908 3.5 35.1564 3.5 35.122 3.5C35.0877 3.5 35.0533 3.5 35.0189 3.5C34.9846 3.5 34.9502 3.5 34.9159 3.5C34.8816 3.5 34.8473 3.5 34.8129 3.5C34.7786 3.5 34.7443 3.5 34.71 3.5C34.6757 3.5 34.6414 3.5 34.6071 3.5C34.5728 3.5 34.5385 3.5 34.5042 3.5C34.47 3.5 34.4357 3.5 34.4014 3.5C34.3672 3.5 34.3329 3.5 34.2987 3.5C34.2644 3.5 34.2302 3.5 34.196 3.5C34.1617 3.5 34.1275 3.5 34.0933 3.5C34.0591 3.5 34.0248 3.5 33.9906 3.5C33.9564 3.5 33.9222 3.5 33.888 3.5C33.8538 3.5 33.8196 3.5 33.7855 3.5C33.7513 3.5 33.7171 3.5 33.6829 3.5C33.6488 3.5 33.6146 3.5 33.5804 3.5C33.5463 3.5 33.5121 3.5 33.478 3.5C33.4438 3.5 33.4097 3.5 33.3755 3.5C33.3414 3.5 33.3073 3.5 33.2732 3.5C33.239 3.5 33.2049 3.5 33.1708 3.5C33.1367 3.5 33.1026 3.5 33.0685 3.5C33.0344 3.5 33.0003 3.5 32.9662 3.5C32.9321 3.5 32.898 3.5 32.8639 3.5C32.8298 3.5 32.7957 3.5 32.7617 3.5C32.7276 3.5 32.6935 3.5 32.6595 3.5C32.6254 3.5 32.5913 3.5 32.5573 3.5C32.5232 3.5 32.4892 3.5 32.4551 3.5C32.4211 3.5 32.387 3.5 32.353 3.5C32.3189 3.5 32.2849 3.5 32.2509 3.5C32.2168 3.5 32.1828 3.5 32.1488 3.5C32.1148 3.5 32.0807 3.5 32.0467 3.5C32.0127 3.5 31.9787 3.5 31.9447 3.5C31.9107 3.5 31.8767 3.5 31.8427 3.5C31.8087 3.5 31.7747 3.5 31.7407 3.5C31.7067 3.5 31.6727 3.5 31.6387 3.5C31.6047 3.5 31.5707 3.5 31.5367 3.5C31.5027 3.5 31.4688 3.5 31.4348 3.5C31.4008 3.5 31.3668 3.5 31.3328 3.5C31.2989 3.5 31.2649 3.5 31.2309 3.5C31.197 3.5 31.163 3.5 31.129 3.5C31.0951 3.5 31.0611 3.5 31.0272 3.5C30.9932 3.5 30.9592 3.5 30.9253 3.5C30.8913 3.5 30.8574 3.5 30.8234 3.5C30.7895 3.5 30.7555 3.5 30.7216 3.5C30.6876 3.5 30.6537 3.5 30.6197 3.5C30.5858 3.5 30.5519 3.5 30.5179 3.5C30.484 3.5 30.45 3.5 30.4161 3.5C30.3822 3.5 30.3482 3.5 30.3143 3.5C30.2804 3.5 30.2464 3.5 30.2125 3.5C30.1786 3.5 30.1446 3.5 30.1107 3.5C30.0768 3.5 30.0428 3.5 30.0089 3.5C29.975 3.5 29.941 3.5 29.9071 3.5C29.8732 3.5 29.8393 3.5 29.8053 3.5C29.7714 3.5 29.7375 3.5 29.7036 3.5C29.6696 3.5 29.6357 3.5 29.6018 3.5C29.5679 3.5 29.5339 3.5 29.5 3.5C29.4661 3.5 29.4321 3.5 29.3982 3.5C29.3643 3.5 29.3304 3.5 29.2964 3.5C29.2625 3.5 29.2286 3.5 29.1947 3.5C29.1607 3.5 29.1268 3.5 29.0929 3.5C29.059 3.5 29.025 3.5 28.9911 3.5C28.9572 3.5 28.9232 3.5 28.8893 3.5C28.8554 3.5 28.8214 3.5 28.7875 3.5C28.7536 3.5 28.7196 3.5 28.6857 3.5C28.6518 3.5 28.6178 3.5 28.5839 3.5C28.55 3.5 28.516 3.5 28.4821 3.5C28.4481 3.5 28.4142 3.5 28.3803 3.5C28.3463 3.5 28.3124 3.5 28.2784 3.5C28.2445 3.5 28.2105 3.5 28.1766 3.5C28.1426 3.5 28.1087 3.5 28.0747 3.5C28.0408 3.5 28.0068 3.5 27.9728 3.5C27.9389 3.5 27.9049 3.5 27.871 3.5C27.837 3.5 27.803 3.5 27.7691 3.5C27.7351 3.5 27.7011 3.5 27.6672 3.5C27.6332 3.5 27.5992 3.5 27.5652 3.5C27.5312 3.5 27.4973 3.5 27.4633 3.5C27.4293 3.5 27.3953 3.5 27.3613 3.5C27.3273 3.5 27.2933 3.5 27.2593 3.5C27.2253 3.5 27.1913 3.5 27.1573 3.5C27.1233 3.5 27.0893 3.5 27.0553 3.5C27.0213 3.5 26.9873 3.5 26.9533 3.5C26.9193 3.5 26.8852 3.5 26.8512 3.5C26.8172 3.5 26.7832 3.5 26.7491 3.5C26.7151 3.5 26.6811 3.5 26.647 3.5C26.613 3.5 26.5789 3.5 26.5449 3.5C26.5108 3.5 26.4768 3.5 26.4427 3.5C26.4087 3.5 26.3746 3.5 26.3406 3.5C26.3065 3.5 26.2724 3.5 26.2383 3.5C26.2043 3.5 26.1702 3.5 26.1361 3.5C26.102 3.5 26.0679 3.5 26.0338 3.5C25.9997 3.5 25.9656 3.5 25.9315 3.5C25.8974 3.5 25.8633 3.5 25.8292 3.5C25.7951 3.5 25.761 3.5 25.7268 3.5C25.6927 3.5 25.6586 3.5 25.6245 3.5C25.5903 3.5 25.5562 3.5 25.522 3.5C25.4879 3.5 25.4537 3.5 25.4196 3.5C25.3854 3.5 25.3512 3.5 25.3171 3.5C25.2829 3.5 25.2487 3.5 25.2145 3.5C25.1804 3.5 25.1462 3.5 25.112 3.5C25.0778 3.5 25.0436 3.5 25.0094 3.5C24.9752 3.5 24.9409 3.5 24.9067 3.5C24.8725 3.5 24.8383 3.5 24.804 3.5C24.7698 3.5 24.7356 3.5 24.7013 3.5C24.6671 3.5 24.6328 3.5 24.5986 3.5C24.5643 3.5 24.53 3.5 24.4957 3.5C24.4615 3.5 24.4272 3.5 24.3929 3.5C24.3586 3.5 24.3243 3.5 24.29 3.5C24.2557 3.5 24.2214 3.5 24.1871 3.5C24.1527 3.5 24.1184 3.5 24.0841 3.5C24.0498 3.5 24.0154 3.5 23.9811 3.5C23.9467 3.5 23.9123 3.5 23.878 3.5C23.8436 3.5 23.8092 3.5 23.7749 3.5C23.7405 3.5 23.7061 3.5 23.6717 3.5C23.6373 3.5 23.6029 3.5 23.5685 3.5C23.534 3.5 23.4996 3.5 23.4652 3.5C23.4308 3.5 23.3963 3.5 23.3619 3.5C23.3274 3.5 23.293 3.5 23.2585 3.5C23.224 3.5 23.1895 3.5 23.1551 3.5C23.1206 3.5 23.0861 3.5 23.0516 3.5C23.0171 3.5 22.9825 3.5 22.948 3.5C22.9135 3.5 22.879 3.5 22.8444 3.5C22.8099 3.5 22.7753 3.5 22.7408 3.5C22.7062 3.5 22.6716 3.5 22.6371 3.5C22.6025 3.5 22.5679 3.5 22.5333 3.5C22.4987 3.5 22.4641 3.5 22.4295 3.5C22.3948 3.5 22.3602 3.5 22.3256 3.5C22.2909 3.5 22.2563 3.5 22.2216 3.5C22.187 3.5 22.1523 3.5 22.1176 3.5C22.0829 3.5 22.0482 3.5 22.0135 3.5C21.9788 3.5 21.9441 3.5 21.9094 3.5C21.8747 3.5 21.8399 3.5 21.8052 3.5C21.7704 3.5 21.7357 3.5 21.7009 3.5C21.6662 3.5 21.6314 3.5 21.5966 3.5C21.5618 3.5 21.527 3.5 21.4922 3.5C21.4574 3.5 21.4225 3.5 21.3877 3.5C21.3529 3.5 21.318 3.5 21.2832 3.5C21.2483 3.5 21.2134 3.5 21.1786 3.5C21.1437 3.5 21.1088 3.5 21.0739 3.5C21.039 3.5 21.0041 3.5 20.9691 3.5C20.9342 3.5 20.8993 3.5 20.8643 3.5C20.8293 3.5 20.7944 3.5 20.7594 3.5C20.7244 3.5 20.6894 3.5 20.6544 3.5C20.6194 3.5 20.5844 3.5 20.5494 3.5C20.5144 3.5 20.4793 3.5 20.4443 3.5C20.4092 3.5 20.3741 3.5 20.3391 3.5C20.304 3.5 20.2689 3.5 20.2338 3.5C20.1987 3.5 20.1635 3.5 20.1284 3.5C20.0933 3.5 20.0581 3.5 20.023 3.5C19.9878 3.5 19.9526 3.5 19.9175 3.5C19.8823 3.5 19.8471 3.5 19.8119 3.5C19.7766 3.5 19.7414 3.5 19.7062 3.5C19.6709 3.5 19.6357 3.5 19.6004 3.5C19.5651 3.5 19.5299 3.5 19.4946 3.5C19.4593 3.5 19.424 3.5 19.3886 3.5C19.3533 3.5 19.318 3.5 19.2826 3.5C19.2473 3.5 19.2119 3.5 19.1765 3.5C19.1411 3.5 19.1057 3.5 19.0703 3.5C19.0349 3.5 18.9995 3.5 18.964 3.5C18.9286 3.5 18.8931 3.5 18.8577 3.5C18.8222 3.5 18.7867 3.5 18.7512 3.5C18.7157 3.5 18.6802 3.5 18.6446 3.5C18.6091 3.5 18.5736 3.5 18.538 3.5C18.5024 3.5 18.4669 3.5 18.4313 3.5C18.3957 3.5 18.3601 3.5 18.3244 3.5C18.2888 3.5 18.2532 3.5 18.2175 3.5C18.1819 3.5 18.1462 3.5 18.1105 3.5C18.0748 3.5 18.0391 3.5 18.0034 3.5C17.9677 3.5 17.9319 3.5 17.8962 3.5C17.8604 3.5 17.8246 3.5 17.7889 3.5C17.7531 3.5 17.7173 3.5 17.6814 3.5C17.6456 3.5 17.6098 3.5 17.5739 3.5C17.5381 3.5 17.5022 3.5 17.4663 3.5C17.4304 3.5 17.3945 3.5 17.3586 3.5C17.3227 3.5 17.2868 3.5 17.2508 3.5C17.2148 3.5 17.1789 3.5 17.1429 3.5C17.1069 3.5 17.0709 3.5 17.0349 3.5C16.9988 3.5 16.9628 3.5 16.9267 3.5C16.8907 3.5 16.8546 3.5 16.8185 3.5C16.7824 3.5 16.7463 3.5 16.7102 3.5C16.674 3.5 16.6379 3.5 16.6017 3.5C16.5656 3.5 16.5294 3.5 16.4932 3.5C16.457 3.5 16.4207 3.5 16.3845 3.5C16.3483 3.5 16.312 3.5 16.2757 3.5C16.2395 3.5 16.2032 3.5 16.1668 3.5C16.1305 3.5 16.0942 3.5 16.0578 3.5C16.0215 3.5 15.9851 3.5 15.9487 3.5C15.9123 3.5 15.8759 3.5 15.8395 3.5C15.8031 3.5 15.7666 3.5 15.7302 3.5C15.6937 3.5 15.6572 3.5 15.6207 3.5C15.5842 3.5 15.5477 3.5 15.5112 3.5C15.4746 3.5 15.438 3.5 15.4015 3.5C15.3649 3.5 15.3283 3.5 15.2917 3.5C15.255 3.5 15.2184 3.5 15.1817 3.5C15.1451 3.5 15.1084 3.5 15.0717 3.5C15.035 3.5 14.9983 3.5 14.9615 3.5C14.9248 3.5 14.888 3.5 14.8512 3.5C14.8145 3.5 14.7777 3.5 14.7408 3.5C14.704 3.5 14.6672 3.5 14.6303 3.5C14.5934 3.5 14.5566 3.5 14.5197 3.5C14.4827 3.5 14.4458 3.5 14.4089 3.5C14.3719 3.5 14.335 3.5 14.298 3.5C14.261 3.5 14.224 3.5 14.1869 3.5C14.1499 3.5 14.1128 3.5 14.0758 3.5C14.0387 3.5 14.0016 3.5 13.9645 3.5C13.9274 3.5 13.8902 3.5 13.8531 3.5C13.8159 3.5 13.7787 3.5 13.7415 3.5C13.7043 3.5 13.6671 3.5 13.6298 3.5C13.5926 3.5 13.5553 3.5 13.518 3.5C13.4807 3.5 13.4434 3.5 13.4061 3.5C13.3687 3.5 13.3314 3.5 13.294 3.5C13.2566 3.5 13.2192 3.5 13.1818 3.5C13.1444 3.5 13.1069 3.5 13.0694 3.5C13.032 3.5 12.9945 3.5 12.957 3.5C12.9194 3.5 12.8819 3.5 12.8443 3.5C12.8068 3.5 12.7692 3.5 12.7316 3.5C12.694 3.5 12.6563 3.5 12.6187 3.5C12.581 3.5 12.5433 3.5 12.5056 3.5C12.4679 3.5 12.4302 3.5 12.3924 3.5C12.3547 3.5 12.3169 3.5 12.2791 3.5C12.2413 3.5 12.2035 3.5 12.1657 3.5C12.1278 3.5 12.0899 3.5 12.0521 3.5C12.0142 3.5 11.9762 3.5 11.9383 3.5C11.9004 3.5 11.8624 3.5 11.8244 3.5C11.7864 3.5 11.7484 3.5 11.7104 3.5C11.6723 3.5 11.6343 3.5 11.5962 3.5C11.5581 3.5 11.52 3.5 11.4818 3.5C11.4437 3.5 11.4055 3.5 11.3673 3.5C11.3292 3.5 11.2909 3.5 11.2527 3.5C11.2145 3.5 11.1762 3.5 11.1379 3.5C11.0996 3.5 11.0613 3.5 11.023 3.5C10.9846 3.5 10.9463 3.5 10.9079 3.5C10.8695 3.5 10.8311 3.5 10.7927 3.5C10.7542 3.5 10.7157 3.5 10.6773 3.5C10.6388 3.5 10.6002 3.5 10.5617 3.5C10.5232 3.5 10.4846 3.5 10.446 3.5C10.4074 3.5 10.3688 3.5 10.3301 3.5C10.2915 3.5 10.2528 3.5 10.2141 3.5C10.1754 3.5 10.1367 3.5 10.0979 3.5C10.0592 3.5 10.0204 3.5 9.98159 3.5C9.94278 3.5 9.90395 3.5 9.86509 3.5C9.82623 3.5 9.78735 3.5 9.74843 3.5C9.70952 3.5 9.67058 3.5 9.63161 3.5C9.59264 3.5 9.55365 3.5 9.51463 3.5C9.4756 3.5 9.43656 3.5 9.39748 3.5C9.3584 3.5 9.3193 3.5 9.28017 3.5C9.24104 3.5 9.20188 3.5 9.16269 3.5C9.1235 3.5 9.08429 3.5 9.04505 3.5C9.0058 3.5 8.96654 3.5 8.92724 3.5C8.88794 3.5 8.84861 3.5 8.80926 3.5C8.76991 3.5 8.73052 3.5 8.69111 3.5C8.6517 3.5 8.61226 3.5 8.5728 3.5C8.53333 3.5 8.49383 3.5 8.45431 3.5C8.41478 3.5 8.37523 3.5 8.33565 3.5C8.29607 3.5 8.25646 3.5 8.21682 3.5C8.17718 3.5 8.13751 3.5 8.09782 3.5C8.05812 3.5 8.01839 3.5 7.97864 3.5C7.93888 3.5 7.8991 3.5 7.85929 3.5C7.81947 3.5 7.77963 3.5 7.73976 3.5C7.69988 3.5 7.65998 3.5 7.62005 3.5C7.58012 3.5 7.54016 3.5 7.50017 3.5C7.46018 3.5 7.42016 3.5 7.38011 3.5C7.34006 3.5 7.29998 3.5 7.25987 3.5C7.21976 3.5 7.17962 3.5 7.13945 3.5C7.09928 3.5 7.05908 3.5 7.01885 3.5C6.97862 3.5 6.93836 3.5 6.89806 3.5C6.85777 3.5 6.81745 3.5 6.7771 3.5C6.73675 3.5 6.69636 3.5 6.65595 3.5C6.61553 3.5 6.57509 3.5 6.53461 3.5C6.49414 3.5 6.45363 3.5 6.41309 3.5C6.37256 3.5 6.33199 3.5 6.29139 3.5C6.25079 3.5 6.21016 3.5 6.1695 3.5C6.12883 3.5 6.08814 3.5 6.04742 3.5C6.00669 3.5 5.96593 3.5 5.92515 3.5C5.88436 3.5 5.84354 3.5 5.80269 3.5C5.76184 3.5 5.72095 3.5 5.68004 3.5C5.63912 3.5 5.59818 3.5 5.5572 3.5C5.51622 3.5 5.47521 3.5 5.43416 3.5C5.39312 3.5 5.35204 3.5 5.31094 3.5C5.26983 3.5 5.22869 3.5 5.18751 3.5C5.14634 3.5 5.10514 3.5 5.0639 3.5C5.02266 3.5 4.98139 3.5 4.94009 3.5C4.89878 3.5 4.85745 3.5 4.81608 3.5C4.77471 3.5 4.73331 3.5 4.69187 3.5C4.65044 3.5 4.60897 3.5 4.56747 3.5C4.52597 3.5 4.48443 3.5 4.44286 3.5C4.40129 3.5 4.35969 3.5 4.31806 3.5C4.27642 3.5 4.23475 3.5 4.19305 3.5C4.15135 3.5 4.10961 3.5 4.06785 3.5C4.02608 3.5 3.98427 3.5 3.94243 3.5C3.9006 3.5 3.85873 3.5 3.81682 3.5C3.77492 3.5 3.73298 3.5 3.691 3.5C3.64903 3.5 3.60702 3.5 3.56498 3.5C3.52294 3.5 3.48086 3.5 3.43875 3.5C3.39664 3.5 3.35449 3.5 3.31231 3.5C3.27013 3.5 3.22791 3.5 3.18566 3.5C3.14341 3.5 3.10113 3.5 3.05881 3.5C3.01649 3.5 2.97414 3.5 2.93175 3.5C2.88936 3.5 2.84693 3.5 2.80447 3.5C2.76201 3.5 2.71951 3.5 2.67698 3.5C2.63445 3.5 2.59189 3.5 2.54928 3.5C2.50668 3.5 2.46404 3.5 2.42137 3.5C2.3787 3.5 2.33599 3.5 2.29324 3.5C2.2505 3.5 2.20772 3.5 2.1649 3.5C2.12209 3.5 2.07923 3.5 2.03634 3.5C1.99346 3.5 1.95053 3.5 1.90757 3.5C1.86461 3.5 1.82161 3.5 1.77858 3.5C1.73554 3.5 1.69247 3.5 1.64937 3.5C1.60626 3.5 1.56311 3.5 1.51993 3.5C1.47675 3.5 1.43354 3.5 1.39028 3.5C1.34703 3.5 1.30374 3.5 1.26041 3.5C1.21708 3.5 1.17372 3.5 1.13032 3.5C1.08692 3.5 1.04348 3.5 1 3.5L1 4.5Z" fill="#C7C7C7"/>
</svg>
