<svg width="34" height="38" viewBox="0 0 34 38" fill="none" xmlns="http://www.w3.org/2000/svg">
<path d="M9.58051 21.9952C9.93037 21.9952 10.2593 22.1314 10.5067 22.3788C10.6466 22.5187 10.8299 22.5888 11.0134 22.5887C11.1967 22.5887 11.3802 22.5187 11.5201 22.3788C11.8 22.099 11.8 21.6453 11.5201 21.3654C11.002 20.8473 10.3132 20.562 9.58059 20.562C8.84798 20.562 8.15917 20.8473 7.64109 21.3654C7.36117 21.6452 7.36117 22.0989 7.64109 22.3788C7.921 22.6587 8.37468 22.6586 8.65442 22.3788C8.90173 22.1314 9.23064 21.9952 9.58051 21.9952Z" fill="#F9A82F"/>
<path d="M22.48 21.3653C22.2 21.6451 22.2 22.0988 22.48 22.3787C22.7598 22.6586 23.2135 22.6586 23.4933 22.3787C24.0039 21.868 24.835 21.8681 25.3456 22.3787C25.4855 22.5186 25.6689 22.5886 25.8523 22.5886C26.0358 22.5886 26.2191 22.5186 26.3591 22.3787C26.639 22.0989 26.639 21.6452 26.3591 21.3653C25.2897 20.2959 23.5495 20.2958 22.48 21.3653Z" fill="#F9A82F"/>
<path d="M24.4156 28.4345C20.3266 32.5235 13.6735 32.5235 9.58441 28.4345C9.30459 28.1547 8.8509 28.1547 8.57108 28.4345C8.29117 28.7143 8.29117 29.1681 8.57108 29.4479C10.8949 31.7718 13.9475 32.9337 17 32.9337C20.0526 32.9337 23.1051 31.7718 25.429 29.4479C25.7089 29.1681 25.7089 28.7144 25.429 28.4345C25.1492 28.1547 24.6954 28.1547 24.4156 28.4345Z" fill="#F9A82F"/>
<path d="M33.9078 22.7673C33.9078 20.8208 32.5006 19.1978 30.6504 18.8593V6.87155C30.6504 5.31639 29.8768 3.87464 28.5809 3.01484C27.3637 2.20735 25.8528 2.02408 24.4865 2.50553L19.9877 0.978504C16.5307 -0.194981 12.8918 -0.315366 9.46454 0.630248C4.9777 1.86822 2.40536 4.48606 2.00829 8.20725C1.6569 8.67069 1.3777 9.1912 1.18799 9.75282L0.839015 10.7857C0.65172 11.3402 0.858184 11.923 1.35298 12.2358C1.84769 12.5485 2.46278 12.4853 2.88341 12.0782C3.02708 11.9391 3.18419 11.8219 3.34954 11.7239V18.8593C1.49934 19.1978 0.0921631 20.8207 0.0921631 22.7673C0.0921631 24.7917 1.61408 26.4663 3.57365 26.7097C4.06576 29.427 5.35891 31.9335 7.33622 33.9393C9.91778 36.558 13.3496 38.0001 17 38.0001C17.0004 38.0001 17.0009 38.0001 17.0013 38.0001C20.647 37.9998 24.0744 36.5799 26.6523 34.0021C28.6659 31.9884 29.973 29.4564 30.4489 26.7069C32.3975 26.4533 33.9078 24.7838 33.9078 22.7673ZM27.7886 4.2091C28.6966 4.81148 29.2173 5.7819 29.2173 6.87155V16.2488C26.9931 15.9031 25.2853 13.9752 25.2853 11.6556L25.226 3.77683C26.101 3.54618 27.0135 3.69487 27.7886 4.2091ZM2.40653 10.6236L2.54581 10.2115C2.91064 9.13172 3.72082 8.25508 4.76855 7.8065C5.81618 7.35792 7.00973 7.37655 8.04294 7.85783C10.2129 8.86847 12.8362 8.32208 14.4222 6.5292L14.5997 6.32847C14.862 6.03208 14.8342 5.5792 14.5378 5.31702C14.2413 5.05484 13.7885 5.08252 13.5263 5.37892L13.3488 5.57965C12.18 6.90084 10.247 7.30337 8.648 6.55867C7.24593 5.9056 5.6262 5.88025 4.20442 6.48907C4.07499 6.54452 3.94914 6.60641 3.82526 6.67117C4.65819 4.45059 6.6741 2.88684 9.84585 2.01172C12.9953 1.14269 16.343 1.25474 19.5272 2.33552L23.7929 3.78346L23.8488 7.4861C21.9494 10.0686 19.1793 11.8167 16.0226 12.4179C12.7902 13.0333 9.49267 12.382 6.73725 10.584C5.39089 9.70552 3.69341 9.74305 2.40653 10.6236ZM1.52532 22.7673C1.52532 21.6151 2.29644 20.6402 3.34954 20.33V24.2141C3.34954 24.5496 3.36164 24.8833 3.38519 25.2148C2.314 24.9162 1.52532 23.9324 1.52532 22.7673ZM25.6389 32.9886C23.3317 35.2958 20.2642 36.5665 17.0012 36.5669C17.0007 36.5669 17.0006 36.5669 17 36.5669C13.7366 36.5669 10.6668 35.2762 8.3568 32.9331C6.05202 30.5951 4.7827 27.4986 4.7827 24.214V11.3861C5.18855 11.4163 5.59126 11.5477 5.95385 11.7842C9.02134 13.7859 12.6922 14.511 16.2905 13.8258C19.2113 13.2695 21.8353 11.8316 23.8521 9.71098V11.6555C23.8521 14.7664 26.2004 17.3377 29.2172 17.6936V24.3495C29.2173 27.613 27.9465 30.6811 25.6389 32.9886ZM30.6227 25.2124C30.6405 24.9263 30.6504 24.6387 30.6504 24.3496V20.33C31.7035 20.6402 32.4746 21.6151 32.4746 22.7673C32.4746 23.9295 31.69 24.9113 30.6227 25.2124Z" fill="#F9A82F"/>
</svg>
